<?xml version="1.0" encoding="utf-8"?>
<!-- Generator: Adobe Illustrator 22.1.0, SVG Export Plug-In . SVG Version: 6.00 Build 0)  -->
<svg version="1.1" id="Capa_1" xmlns="http://www.w3.org/2000/svg" xmlns:xlink="http://www.w3.org/1999/xlink" x="0px" y="0px"
	 viewBox="0 0 250 100" style="enable-background:new 0 0 250 100;" xml:space="preserve">
<style type="text/css">
	.st0{fill:#2E2E2E;}
	.st1{fill:#019CE0;}
</style>
<g>
	<g>
		<path class="st0" d="M164.7,56.5h-8.2v9.4h-3.3v-24h11.5c4.7,0,7.5,3.5,7.5,7.3C172.2,52.9,169.4,56.5,164.7,56.5z M164.4,44.7
			h-7.9v9.1h7.9c2.7,0,4.5-1.9,4.5-4.6C168.9,46.5,166.8,44.7,164.4,44.7z"/>
		<path class="st0" d="M183.1,66.3c-6.8,0-11.6-5.6-11.6-12.3s4.8-12.4,11.6-12.4s11.6,5.6,11.6,12.4S189.9,66.3,183.1,66.3z
			 M183.1,44.4c-5,0-8.3,4.1-8.3,9.5s3.3,9.4,8.3,9.4s8.3-4,8.3-9.4S188.2,44.4,183.1,44.4z"/>
		<path class="st0" d="M204.1,66.3c-3.2,0-6.5-0.7-9.7-2l0.7-2.5c2.9,1,6.1,1.7,8.9,1.7c3.9,0,6.1-1.5,6.1-3.6
			c0-1.9-1.1-2.9-6.6-4.9c-6.3-2.3-8.3-3.9-8.3-7.7c0-3.9,3.2-5.7,9.1-5.7c2.5,0,6.1,0.5,8.4,1.2l-0.6,2.6c-2.4-0.6-5.2-1-7.7-1
			c-4.3,0-5.9,0.7-5.9,2.9c0,2.3,1.6,3,7.2,5.3c6.2,2.5,7.7,3.8,7.7,7.2C213.4,63.6,209.8,66.3,204.1,66.3z"/>
		<path class="st0" d="M230.7,65.9l-2.4-6.1h-10.7l-2.4,6.1H212l9.6-23.9h2.8l9.6,23.9H230.7z M223,45.5l-4.5,11.7h8.9L223,45.5z"/>
		<path class="st0" d="M240.9,56.2v9.6h-3.3v-9.6l-9.2-14.3h3.4l7.4,11.4l7.4-11.4h3.4L240.9,56.2z"/>
	</g>
	<rect x="118.8" y="17.9" class="st1" width="34.4" height="48"/>
	<g>
		<path class="st0" d="M0,65.9v-24h3.3V63h12.2v2.8L0,65.9L0,65.9z"/>
		<path class="st0" d="M33.5,65.9l-2.4-6.1H20.5L18,65.9h-3.3L24.3,42h2.8l9.6,23.9H33.5z M25.8,45.5l-4.5,11.7h8.9L25.8,45.5z"/>
	</g>
	<g>
		<path class="st0" d="M59.8,65.9l-7.1-9.7h-7.2v9.7h-3.3v-24h11.6c4.6,0,7.5,3.4,7.5,7.1c0,3-1.8,5.7-5,6.6l7.5,10.1L59.8,65.9
			L59.8,65.9z M53.4,44.7h-7.9v8.8h7.9c2.7,0,4.5-1.8,4.5-4.4S55.8,44.7,53.4,44.7z"/>
		<path class="st0" d="M73.6,66.3C66.8,66.3,62,60.7,62,54s4.8-12.4,11.6-12.4c6.8,0,11.6,5.6,11.6,12.4S80.3,66.3,73.6,66.3z
			 M73.6,44.4c-5,0-8.4,4.1-8.4,9.5s3.3,9.4,8.4,9.4c5,0,8.3-4,8.3-9.4S78.6,44.4,73.6,44.4z"/>
		<path class="st0" d="M103.8,45.1c-1.6-0.4-3.6-0.7-5.3-0.7c-6.2,0-10.1,3.8-10.1,9.4s3.9,9.5,10.1,9.5c1.6,0,3.3-0.2,5.3-0.7
			l0.7,2.7c-1.9,0.6-4,0.9-6.1,0.9c-7.7,0-13.3-5.5-13.3-12.4s5.5-12.3,13.3-12.3c2.3,0,4.2,0.2,6.2,0.9L103.8,45.1z"/>
		<path class="st0" d="M122.3,65.9V55.1h-12.5v10.8h-3.3v-24h3.3v10.2h12.5V41.9h3.4v23.9L122.3,65.9L122.3,65.9z"/>
		<path class="st0" d="M128.6,65.9v-24h16.5v2.8h-13.2V52h12.4v2.8h-12.4v8.1h13.2v2.8L128.6,65.9L128.6,65.9z"/>
	</g>
	<g>
		<path class="st0" d="M41.9,79.5v-9.4h0.9v8.6h4.9v0.7h-5.8V79.5z"/>
		<path class="st0" d="M55.1,79.5L54,76.9h-4.6l-1.1,2.6h-0.9l3.9-9.4H52l3.9,9.4H55.1z M51.8,71.1l-2,5h4L51.8,71.1z"/>
		<path class="st0" d="M60.5,79.5h-4.2v-9.4H60c2,0,3,0.9,3,2.4c0,0.9-0.5,1.7-1.5,2.1c1.2,0.4,1.8,1.2,1.8,2.3
			C63.4,78.2,62.3,79.5,60.5,79.5z M60.1,70.8h-3v3.4H60c1.2,0,2.2-0.5,2.2-1.7C62.2,71.3,61.3,70.8,60.1,70.8z M60.4,75h-3.3v3.7
			h3.3c1.2,0,2.1-0.7,2.1-1.9C62.5,75.7,61.8,75,60.4,75z"/>
		<path class="st0" d="M67.9,79.6c-2.6,0-4.4-2.2-4.4-4.8c0-2.6,1.8-4.8,4.4-4.8s4.4,2.2,4.4,4.8S70.5,79.6,67.9,79.6z M67.9,70.7
			c-2.1,0-3.6,1.8-3.6,4.1s1.4,4.1,3.6,4.1s3.6-1.8,3.6-4.1C71.5,72.4,70,70.7,67.9,70.7z"/>
		<path class="st0" d="M80.3,79.5l-3-4.1H74v4.1h-0.9v-9.4h4.2c1.8,0,2.8,1.3,2.8,2.7c0,1.2-0.7,2.3-2.1,2.6l3,4.1L80.3,79.5
			L80.3,79.5z M77.5,70.8h-3.4v3.9h3.4c1.2,0,2-0.8,2-2S78.5,70.8,77.5,70.8z"/>
		<path class="st0" d="M88.5,79.5l-1.1-2.6h-4.6l-1.1,2.6h-0.9l3.9-9.4h0.6l3.9,9.4H88.5z M85.1,71.1l-2,5h4L85.1,71.1z"/>
		<path class="st0" d="M92,70.8v8.6h-0.9v-8.6h-3.2v-0.7h7.3v0.7H92z"/>
		<path class="st0" d="M99,79.6c-2.6,0-4.4-2.2-4.4-4.8c0-2.6,1.8-4.8,4.4-4.8s4.4,2.2,4.4,4.8C103.5,77.4,101.7,79.6,99,79.6z
			 M99,70.7c-2.1,0-3.6,1.8-3.6,4.1s1.4,4.1,3.6,4.1s3.6-1.8,3.6-4.1S101.1,70.7,99,70.7z"/>
		<path class="st0" d="M104.4,79.5v-9.4h0.9v9.4H104.4z"/>
		<path class="st0" d="M114,79.5l-3-4.1h-3.3v4.1h-0.9v-9.4h4.2c1.8,0,2.8,1.3,2.8,2.7c0,1.2-0.7,2.3-2.1,2.6l3,4.1L114,79.5
			L114,79.5z M111.1,70.8h-3.4v3.9h3.4c1.2,0,2-0.8,2-2S112.2,70.8,111.1,70.8z"/>
		<path class="st0" d="M115.4,79.5v-9.4h6.2v0.7h-5.4v3.4h5V75h-5v3.7h5.4v0.7L115.4,79.5L115.4,79.5z"/>
	</g>
	<g>
		<path class="st0" d="M126.3,79.5h-1.9v-9.4h1.9c3.2,0,5.5,2,5.5,4.7S129.5,79.5,126.3,79.5z M126.4,70.8h-1.2v7.9h1.2
			c2.3,0,4.5-1.4,4.5-3.9S128.7,70.8,126.4,70.8z"/>
		<path class="st0" d="M132.5,79.5v-9.4h6.2v0.7h-5.4v3.4h5V75h-5v3.7h5.4v0.7L132.5,79.5L132.5,79.5z"/>
		<path class="st0" d="M146.9,79.5l-3-4.1h-3.3v4.1h-0.9v-9.4h4.3c1.8,0,2.8,1.3,2.8,2.7c0,1.2-0.7,2.3-2.1,2.6l3,4.1L146.9,79.5
			L146.9,79.5z M144.1,70.8h-3.4v3.9h3.4c1.2,0,2-0.8,2-2S145.1,70.8,144.1,70.8z"/>
		<path class="st0" d="M156.2,79.5v-7.8l-3.2,6.6h-0.5l-3.2-6.6v7.8h-0.8v-9.4h0.8l3.5,7l3.5-7h0.8v9.4H156.2z"/>
		<path class="st0" d="M164.9,79.5l-1.1-2.6h-4.6l-1.1,2.6h-0.8l3.9-9.4h0.6l3.9,9.4H164.9z M161.5,71.1l-2,5h4L161.5,71.1z"/>
		<path class="st0" d="M168.4,70.8v8.6h-0.9v-8.6h-3.2v-0.7h7.3v0.7H168.4z"/>
		<path class="st0" d="M175.4,79.6c-2.6,0-4.4-2.2-4.4-4.8c0-2.6,1.8-4.8,4.4-4.8s4.4,2.2,4.4,4.8C179.8,77.4,178.1,79.6,175.4,79.6
			z M175.4,70.7c-2.1,0-3.6,1.8-3.6,4.1s1.4,4.1,3.6,4.1c2.1,0,3.6-1.8,3.6-4.1C179,72.4,177.5,70.7,175.4,70.7z"/>
		<path class="st0" d="M180.7,79.5v-9.4h0.9v8.6h4.9v0.7h-5.8V79.5z"/>
		<path class="st0" d="M190.4,79.6c-2.6,0-4.4-2.2-4.4-4.8c0-2.6,1.8-4.8,4.4-4.8c2.6,0,4.4,2.2,4.4,4.8
			C194.8,77.4,193.1,79.6,190.4,79.6z M190.4,70.7c-2.1,0-3.6,1.8-3.6,4.1s1.4,4.1,3.6,4.1c2.1,0,3.6-1.8,3.6-4.1
			C194,72.4,192.5,70.7,190.4,70.7z"/>
		<path class="st0" d="M200.1,79.6c-3,0-5.2-2.1-5.2-4.8c0-2.8,2-4.8,5.2-4.8c0.7,0,1.7,0.1,2.4,0.3l-0.1,0.7
			c-0.8-0.2-1.6-0.2-2.3-0.2c-2.5,0-4.3,1.5-4.3,4.1c0,2.5,1.9,4.1,4.3,4.1c0.6,0,1.3-0.1,2-0.2v-3.4h0.7v3.9
			C201.9,79.5,200.8,79.6,200.1,79.6z"/>
		<path class="st0" d="M204.1,79.5v-9.4h0.9v9.4H204.1z"/>
	</g>
	<g>
		<path class="st0" d="M210.7,79.6v2.5h-0.9v-2.5c-2.4-0.2-4-2.3-4-4.8c0-2.6,1.8-4.8,4.4-4.8c2.6,0,4.4,2.2,4.4,4.8
			C214.7,77.2,213.1,79.3,210.7,79.6z M210.3,70.7c-2.1,0-3.6,1.8-3.6,4.1s1.4,4.1,3.6,4.1c2.1,0,3.6-1.8,3.6-4.1
			C213.9,72.4,212.4,70.7,210.3,70.7z"/>
		<path class="st0" d="M219.1,79.6c-2.4,0-3.7-1.6-3.7-3.4v-6.1h0.9v6.1c0,1.7,1.2,2.7,2.8,2.7s2.8-1.1,2.8-2.7v-6.1h0.9v6.1
			C222.8,77.9,221.5,79.6,219.1,79.6z"/>
	</g>
	<g>
		<path class="st0" d="M224.2,79.5v-9.4h6.2v0.7H225v3.4h5V75h-5v3.7h5.4v0.7L224.2,79.5L224.2,79.5z"/>
	</g>
</g>
</svg>
