<?xml version="1.0" encoding="utf-8"?>
<!-- Generator: Adobe Illustrator 22.1.0, SVG Export Plug-In . SVG Version: 6.00 Build 0)  -->
<svg version="1.1" id="Capa_1" xmlns="http://www.w3.org/2000/svg" xmlns:xlink="http://www.w3.org/1999/xlink" x="0px" y="0px"
	 viewBox="0 0 250 100" style="enable-background:new 0 0 250 100;" xml:space="preserve">
<style type="text/css">
	.st0{fill:#0A5C81;}
</style>
<g>
	<polygon class="st0" points="178.8,67 178.8,43.2 148.4,43.2 148.4,67 139.8,67 139.8,13.8 148.4,13.8 148.4,36.6 178.8,36.6 
		178.8,13.8 187.4,13.8 187.4,67 	"/>
	<path class="st0" d="M49.1,86.2h1.3l-4.7-11.1L41,86.2h1.4l1.2-3h4.3L49.1,86.2L49.1,86.2z M44,82.1l1.7-4.4l1.8,4.4H44L44,82.1z"
		/>
	<path class="st0" d="M125.5,86.2h1.3l-4.7-11.1l-4.7,11.1h1.4l1.2-3h4.3L125.5,86.2L125.5,86.2z M120.3,82.1l1.7-4.4l1.8,4.4H120.3
		L120.3,82.1z"/>
	<polygon class="st0" points="173.9,75.7 173.9,86.2 175.2,86.2 175.2,75.7 	"/>
	<polygon class="st0" points="64.2,13.8 64.2,67 72.9,67 72.9,13.8 	"/>
	<path class="st0" d="M43.2,13.8l-17,36c0.1-0.1-17.2-36-17.2-36H0L26.1,67l26.1-53.2L43.2,13.8L43.2,13.8z"/>
	<path class="st0" d="M113.2,59.9c-12.7,0-22-8.2-22-19.5s9.3-19.5,22-19.5c5.6,0,10.7,1.8,14.7,4.7v-8.4c-4.3-2.2-9.4-3.4-14.7-3.4
		c-16.5,0-29.9,11.9-29.9,26.6S96.7,67,113.2,67c5.3,0,10.4-1.3,14.7-3.4v-8.4C124,58.1,118.8,59.9,113.2,59.9L113.2,59.9z"/>
	<path class="st0" d="M63.3,81.1v4.1h1.3c1.8,0,2.6-0.7,2.6-2c0-1.2-0.8-2.1-2.7-2.1H63.3L63.3,81.1z M63.3,76.7v3.4h0.6
		c0.8,0,1.4-0.1,1.7-0.3c0.5-0.3,0.7-0.5,0.7-1.3c0-0.7-0.2-1.3-0.7-1.5c-0.3-0.2-0.9-0.3-1.8-0.3L63.3,76.7L63.3,76.7z M62.3,86.2
		V75.7H64c2.3,0,3.5,0.9,3.5,2.8c0,0.9-0.3,1.6-1,2c0.6,0.1,1.1,0.5,1.5,1s0.4,1.1,0.4,1.7c0,1-0.4,1.7-1.1,2.2s-1.4,0.7-2.5,0.7
		h-2.5V86.2z"/>
	<path class="st0" d="M85.4,76.5c-1.2,0-2.3,0.4-3.1,1.3c-0.9,0.8-1.3,1.9-1.3,3c0,1.2,0.4,2.2,1.3,3s1.9,1.3,3.1,1.3
		s2.2-0.4,3.1-1.3c0.9-0.8,1.3-1.9,1.3-3c0-1.2-0.4-2.2-1.3-3C87.6,76.9,86.6,76.5,85.4,76.5L85.4,76.5z M85.4,75.4
		c1.5,0,2.8,0.5,3.9,1.6s1.6,2.3,1.6,3.8s-0.5,2.8-1.6,3.8s-2.4,1.6-3.9,1.6s-2.8-0.5-3.9-1.6c-1.1-1-1.6-2.3-1.6-3.8
		s0.5-2.8,1.6-3.8C82.5,75.9,83.8,75.4,85.4,75.4L85.4,75.4z"/>
	<path class="st0" d="M156.7,76.5c-1.2,0-2.3,0.4-3.1,1.3c-0.8,0.8-1.3,1.9-1.3,3c0,1.2,0.4,2.2,1.3,3c0.9,0.8,1.9,1.3,3.1,1.3
		c1.2,0,2.2-0.4,3.1-1.3c0.9-0.8,1.3-1.9,1.3-3c0-1.2-0.4-2.2-1.3-3C158.9,76.9,157.9,76.5,156.7,76.5L156.7,76.5z M156.7,75.4
		c1.5,0,2.8,0.5,3.9,1.6c1.1,1.1,1.6,2.3,1.6,3.8s-0.5,2.8-1.6,3.8s-2.4,1.6-3.9,1.6s-2.8-0.5-3.9-1.6c-1.1-1-1.6-2.3-1.6-3.8
		s0.5-2.8,1.6-3.8C153.9,75.9,155.2,75.4,156.7,75.4L156.7,75.4z"/>
	<path class="st0" d="M227.6,77l-0.9,0.6c-0.4-0.8-1-1.1-1.8-1.1c-0.5,0-0.9,0.2-1.2,0.5s-0.5,0.7-0.5,1.2c0,0.4,0.2,0.7,0.6,1
		c0.2,0.2,0.6,0.4,1.1,0.6l0.7,0.3c0.8,0.4,1.4,0.7,1.8,1.1c0.5,0.5,0.7,1.1,0.7,1.9c0,0.9-0.3,1.7-1,2.3c-0.6,0.6-1.4,0.9-2.3,0.9
		c-0.8,0-1.5-0.2-2.1-0.7s-1-1.1-1.1-2l1.1-0.3c0.1,0.5,0.3,1,0.7,1.4s0.9,0.6,1.4,0.6c0.6,0,1.1-0.2,1.5-0.6s0.6-0.9,0.6-1.4
		s-0.2-1-0.6-1.3c-0.2-0.2-0.7-0.5-1.3-0.7l-0.6-0.3c-0.7-0.3-1.3-0.6-1.6-1c-0.4-0.5-0.7-1-0.7-1.7c0-0.8,0.3-1.4,0.9-1.9
		c0.6-0.5,1.2-0.7,2-0.7C226.1,75.4,227,75.9,227.6,77L227.6,77z"/>
	<polygon class="st0" points="205.6,86.2 205.6,75.7 211.3,75.7 211.3,76.8 206.8,76.8 206.8,79.9 211,79.9 211,81 206.8,81 
		206.8,85.1 211.3,85.1 211.3,86.2 	"/>
	<polygon class="st0" points="27.3,75.7 27.3,85.1 30.2,85.1 30.2,86.2 26.2,86.2 26.2,75.7 	"/>
	<polygon class="st0" points="139.4,76.8 139.4,86.2 138.2,86.2 138.2,76.8 135.7,76.8 135.7,75.7 141.9,75.7 141.9,76.8 	"/>
	<path class="st0" d="M102.6,76.8v3.8h0.4c0.8,0,1.4-0.1,1.8-0.3c0.6-0.3,0.8-0.8,0.8-1.5c0-0.8-0.3-1.3-0.8-1.6
		c-0.4-0.2-1-0.3-1.9-0.3L102.6,76.8L102.6,76.8z M102.6,81.6v4.6h-1.2V75.7h1.5c2.6,0,3.8,1,3.8,2.9c0,0.8-0.2,1.5-0.7,2
		s-1.1,0.8-1.9,0.9l3.3,4.7H106l-3.2-4.6H102.6L102.6,81.6z"/>
	<path class="st0" d="M189.2,76.8v3.8h0.4c0.8,0,1.4-0.1,1.8-0.3c0.6-0.3,0.8-0.8,0.8-1.5c0-0.8-0.3-1.3-0.8-1.6
		c-0.4-0.2-1-0.3-1.9-0.3L189.2,76.8L189.2,76.8z M189.2,81.6v4.6H188V75.7h1.5c2.6,0,3.8,1,3.8,2.9c0,0.8-0.2,1.5-0.7,2
		s-1.1,0.8-1.9,0.9l3.3,4.7h-1.4l-3.2-4.6H189.2L189.2,81.6z"/>
	<polygon class="st0" points="250,13.8 226.5,44.2 226.5,67 218.5,67 218.5,44.2 194.9,13.8 204.2,13.8 222.5,37.5 240.8,13.8 	"/>
</g>
</svg>
