<?xml version="1.0" encoding="utf-8"?>
<!-- Generator: Adobe Illustrator 22.1.0, SVG Export Plug-In . SVG Version: 6.00 Build 0)  -->
<svg version="1.1" id="Capa_1" xmlns="http://www.w3.org/2000/svg" xmlns:xlink="http://www.w3.org/1999/xlink" x="0px" y="0px"
	 viewBox="0 0 250 100" style="enable-background:new 0 0 250 100;" xml:space="preserve">
<style type="text/css">
	.st0{fill:#E78D83;}
</style>
<path class="st0" d="M154.2,63.8c0,10.2,0,20.4-0.1,30.6h6.8V69.2c0-8.9,5.2-11.2,9.8-11.9c7.7-1.1,11.6,2.9,11.6,10.3
	c0,8.9,0,17.9,0,26.8h6.7c0-8.9,0-17.9,0-26.8c0-7.4-3.1-12.1-12.5-12.6c-3.9-0.2-8.6,0.4-13.9,4.7c-0.7,0.6-1.5,1.2-1.6,0v-3.8
	c0-0.2,0-0.4-0.4-0.3l-6.3,0.7L154.2,63.8"/>
<polygon class="st0" points="95.3,63.6 86.3,85.9 85.6,87.8 84.8,85.9 75,62.1 72.6,56.4 65.4,56.4 67.9,62.3 81.2,94.7 85,94.7 
	97.8,62.8 100.4,56.4 98.2,56.4 "/>
<path class="st0" d="M209.5,69h19.8c0,0,1.2,0,1.2-1c0.4-15.3-19.5-15.8-21.5,0.7C208.9,69,209.5,69,209.5,69 M238.2,70.1v0.5h-29
	c0,0-0.5,0-0.5,0.4c-2.5,25.7,21.3,26.3,27.5,13.7l1.3,0.3c-3.5,7.1-9.4,10.2-17.3,10c-13.3-0.3-20-9.7-20.1-19.2
	c-0.2-9.6,6.2-19.4,19-20.4C234.3,54.1,238.1,66.4,238.2,70.1"/>
<path class="st0" d="M44.1,67.6L44.1,67.6l-9.5-21.5c-0.2-0.3-0.2-0.3-0.3,0l-8.9,21.6L44.1,67.6 M14.5,94.6h-2.8
	c8.5-20.8,17-41.6,25.4-62.5h1.3l28.2,62.4H55.7L44.9,69.4H24.6L14.5,94.6z"/>
<polygon class="st0" points="0,5.3 10.2,5.3 10.2,7 2.2,7 2.2,11.9 10,11.9 10,13.6 2.2,13.6 2.2,20 10.2,20 10.2,21.7 0,21.7 "/>
<path class="st0" d="M23.4,17.1L21,21.7h-2.4l9.1-17.2l8.9,17.2h-2.4L31.9,17h-8.5V17.1z M27.6,8.8l-3.4,6.6h6.7L27.6,8.8z"/>
<path class="st0" d="M47.3,15.1c0,1.2-0.1,2.6,0.9,3.7c0.9,1,2.5,1.6,4,1.6c1.4,0,3-0.5,3.9-1.5c1-1,1-2.5,1-3.8V5.3h2.2v10.3
	c0,1.8-0.2,3.2-1.7,4.5c-1.4,1.2-3.3,1.9-5.3,1.9c-1.9,0-3.8-0.6-5.1-1.7c-1.7-1.4-1.9-2.9-1.9-4.7V5.3h2.2v9.8"/>
<polygon class="st0" points="89.2,21.7 87,21.7 87,7 82.3,7 82.3,5.3 94,5.3 94,7 89.2,7 "/>
<polygon class="st0" points="115.1,12 115.1,5.3 117.3,5.3 117.3,21.7 115.1,21.7 115.1,13.7 105.1,13.7 105.1,21.7 102.9,21.7 
	102.9,5.3 105.1,5.3 105.1,12 "/>
<polygon class="st0" points="127.9,5.3 138.1,5.3 138.1,7 130.1,7 130.1,11.9 137.9,11.9 137.9,13.6 130.1,13.6 130.1,20 138.1,20 
	138.1,21.7 127.9,21.7 "/>
<path class="st0" d="M150.5,21.7h-2.2V5.3h2.8c3.7,0,7.2,0.8,7.2,4.5c0,2.5-1.9,4.3-4.9,4.5l6.3,7.4H157l-6-7.2h-0.5V21.7
	 M150.5,12.9h0.7c2.5,0,5-0.4,5-2.9c0-2.7-2.4-3-5-3h-0.7V12.9z"/>
<polygon class="st0" points="171.5,4.4 178.6,18.2 185.8,4.4 189.8,21.7 187.6,21.7 185,10.6 185,10.6 178.6,22.4 172.3,10.6 
	172.3,10.6 169.7,21.7 167.5,21.7 "/>
<path class="st0" d="M201.7,17.1l-2.4,4.7H197l9.1-17.2l8.9,17.2h-2.4l-2.3-4.7C210.3,17.1,201.7,17.1,201.7,17.1z M206,8.8
	l-3.4,6.6h6.7L206,8.8z"/>
<polygon class="st0" points="225.7,20 231.1,20 231.1,21.7 223.5,21.7 223.5,5.3 225.7,5.3 "/>
<polygon class="st0" points="239.8,5.3 250,5.3 250,7 242,7 242,11.9 249.8,11.9 249.8,13.6 242,13.6 242,20 250,20 250,21.7 
	239.8,21.7 "/>
<path class="st0" d="M113.5,69.5h19.8c0,0,1.2,0,1.2-1c0.4-15.3-19.5-15.8-21.5,0.7C112.9,69.6,113.5,69.5,113.5,69.5 M142.3,70.7
	v0.5h-29c0,0-0.5,0-0.5,0.4c-2.5,25.7,21.3,26.3,27.5,13.7l1.3,0.3c-3.4,7.1-9.4,10.2-17.3,10c-13.3-0.3-20-9.7-20.1-19.2
	c-0.2-9.6,6.2-19.4,19-20.5C138.3,54.7,142.1,67,142.3,70.7"/>
<polygon class="st0" points="110.3,36.4 125.5,51.4 126,51.1 120.7,36.4 "/>
</svg>
