<?xml version="1.0" encoding="utf-8"?>
<!-- Generator: Adobe Illustrator 22.1.0, SVG Export Plug-In . SVG Version: 6.00 Build 0)  -->
<svg version="1.1" id="Capa_1" xmlns="http://www.w3.org/2000/svg" xmlns:xlink="http://www.w3.org/1999/xlink" x="0px" y="0px"
	 viewBox="0 0 250 100" style="enable-background:new 0 0 250 100;" xml:space="preserve">
<style type="text/css">
	.st0{fill:#0373B4;}
</style>
<g>
	<path class="st0" d="M213.3,25.4h-1.6l-11.8,23.1l-12-23.1h-1.7l-3.3,25.3c-0.4,2.5-0.8,3.7-1.3,4.7h3.3c-0.3-0.9-0.2-2.7,0.1-5
		l2-15.4l10.6,20.5h1.2L209.5,35l2,15.2c0.2,1.7,0.2,3.8-0.1,5.2h6.6c-0.7-1.5-1-2.2-1.3-4.7L213.3,25.4z"/>
	<path class="st0" d="M62.5,25c-9.7,0-17.3,6.8-17.3,15.6s7.6,15.6,17.3,15.6s17.3-6.8,17.3-15.6C79.7,31.8,72.1,25,62.5,25z
		 M62.9,53.8c-6.7,0-12-5.7-12.3-13.2C50.4,33,54.8,27.3,62,27.3c6.7,0,12,5.7,12.3,13.2C74.5,48.1,69.6,53.8,62.9,53.8z"/>
	<path class="st0" d="M243.2,55.5h6.8c-1.2-1.1-2.4-2.8-3.3-4.9L236,25.4h-1.3l-10.9,25.8c-0.8,1.9-1.6,3.1-2.5,4.2h3.1l4.2-10H239
		L243.2,55.5z M229.4,43.4l4.4-10.6l4.4,10.6H229.4z"/>
	<path class="st0" d="M15.9,38c2.2-1,4.2-2.8,4.2-5.5c0-3-1.4-4.9-4-6c-1.7-0.7-4.4-1-7.1-1c-5.1,0-8.9,0-8.9,0
		c0.5,0.9,0.8,2.1,0.8,3.9c0,3.3,0,18.8,0,22c0,2.2-0.3,3.2-0.9,4.1c0,0,1.7,0,9.7,0c3,0,6.5-0.6,8.2-1.4c2.8-1.4,4.5-3.8,4.5-7.5
		C22.3,41.4,18.5,39.1,15.9,38z M5.9,27.5c0.5,0,1.2,0,2.1,0c0.8,0,2.2,0.1,2.9,0.3c2.3,0.6,4,2.1,4,4.8c0,2.5-1.6,3.9-3.6,4.2
		c-0.5,0-1.9,0.2-2.4,0.2c-1.1,0-2.2,0-3,0C5.9,37,5.9,27.5,5.9,27.5z M11.9,53.3c-0.6,0.1-2.1,0.2-2.5,0.2s-2.9,0-3.5,0V38.9
		c0.4,0,2.1,0,2.7,0c0.5,0,2,0.1,2.8,0.3c3.5,0.8,5.6,3.2,5.5,7.5C16.9,50,15.3,52.6,11.9,53.3z"/>
	<path class="st0" d="M130.5,53.4V39h10.7l0.7-2h-11.4v-9.4c0,0,7.6,0,8.3,0c1.8,0,3.3,0.2,5.2,1.2l-1.5-3.2h-17.9
		c0.5,0.9,0.8,2.1,0.8,3.9c0,3.3,0,18.8,0,22c0,2.2-0.3,3.2-0.8,4.1h19.6l1.5-3.3c-1.8,1-3.7,1.2-5.8,1.2
		C139.1,53.4,130.5,53.4,130.5,53.4z"/>
	<path class="st0" d="M105,26.1c-1.6-0.4-4.5-0.6-5.5-0.6c-0.6,0-12.1,0-12.1,0c0.5,0.9,0.8,2.1,0.8,3.9c0,3.3,0,18.8,0,22
		c0,2.2-0.3,3.2-0.8,4.1c0,0,10.2,0,11.4,0c1.2,0,3.7-0.1,5.1-0.3c8.5-1.2,13.5-6.8,13.5-14.4C117.3,33.3,112.3,27.9,105,26.1z
		 M101.9,53.3c-0.8,0.1-2.7,0.2-3.6,0.2c-2.5,0-4,0-5-0.1V27.7c1,0,3-0.1,4.1-0.1c1.5,0,4.4,0.3,6.1,0.9c4.9,1.7,8.2,6.1,8.2,12.2
		C111.7,47.4,108.7,52.3,101.9,53.3z"/>
	<path class="st0" d="M37.6,25.5H31c0.5,0.9,0.8,2.1,0.8,3.9c0,3.3,0,18.8,0,22c0,2.2-0.3,3.2-0.8,4.1h6.6c-0.5-0.9-0.8-2.1-0.8-3.9
		c0-3.3,0-18.8,0-22C36.8,27.4,37.1,26.3,37.6,25.5z"/>
	<path class="st0" d="M164.4,41.5c4-0.4,8.8-2.6,8.8-7.6c0-4.9-3.2-6.9-6.8-7.8c-2.8-0.6-6-0.6-8-0.6c-0.6,0-6.2,0-6.2,0
		c0.5,0.9,0.8,2.1,0.8,3.9c0,3.3,0,18.8,0,22c0,2.2-0.3,3.2-0.8,4.1h6.8c-0.7-1.2-0.9-2.5-0.9-4v-24c0.9,0,3.2-0.1,4.9,0.3
		c3.9,0.9,5,3.4,5,6.1c0,3.4-2.1,7.3-8.2,6l-0.7,0.4c5.1,7.9,9.6,12.6,12.9,15.1h7.7C174.4,51.9,168.7,46.9,164.4,41.5z"/>
	<path class="st0" d="M8.6,73.1H7.2l3.7-8.1h0.9l3.3,8.1h-1.6l-0.8-2H9.5L8.6,73.1z M11.2,67.3l-1.3,2.9h2.4L11.2,67.3z"/>
	<path class="st0" d="M18.4,65.1H21c1.8,0,2.9,0.8,2.9,1.9c0,1-0.8,1.6-1.5,1.8c1.3,0.1,2.2,1,2.2,2c0,1.4-1.6,2.4-3.2,2.4h-3.1
		L18.4,65.1z M23.1,70.8c0-0.8-0.6-1.3-1.9-1.3h-1.3v2.7h1.2C22.3,72.2,23.1,71.6,23.1,70.8z M20.7,68.6c1,0,1.7-0.5,1.7-1.4
		c0-0.7-0.5-1.2-1.7-1.2h-0.8v2.6H20.7z"/>
	<path class="st0" d="M37,69.1c0,2.5-2.1,4.2-4.6,4.2c-2.6,0-4.5-1.6-4.5-4.2c0-2.4,1.9-4.2,4.6-4.2S37,66.7,37,69.1z M29.5,69.1
		c0,1.8,1.1,3.2,2.9,3.2c1.8,0,2.9-1.4,2.9-3.2c0-1.8-1.1-3.2-2.9-3.2C30.7,65.9,29.5,67.3,29.5,69.1z"/>
	<path class="st0" d="M45.7,73.3l-2.5-3.8h-0.9v3.6h-1.6V65h2.5c2.2,0,3.2,1.1,3.2,2.1c0,1.1-1,1.9-1.7,2.1l2.7,3.9L45.7,73.3z
		 M43.1,68.6c1.3,0,1.8-0.7,1.8-1.3c0-0.7-0.5-1.3-1.8-1.3h-0.8v2.6C42.3,68.6,43.1,68.6,43.1,68.6z"/>
	<path class="st0" d="M50.9,73.2h-1.4l3.7-8.1h0.9l3.3,8.1h-1.6l-0.8-2h-3.2L50.9,73.2z M53.4,67.3l-1.3,2.9h2.4L53.4,67.3z"/>
	<path class="st0" d="M58.6,65.1h7.3v1H63v7h-1.5v-7h-2.9V65.1z"/>
	<path class="st0" d="M77,69.1c0,2.5-2,4.2-4.6,4.2s-4.5-1.6-4.5-4.2c0-2.4,1.9-4.2,4.5-4.2C75.3,64.9,77,66.7,77,69.1z M69.6,69.1
		c0,1.8,1.1,3.2,2.9,3.2s2.9-1.4,2.9-3.2c0-1.8-1.1-3.2-2.9-3.2C70.7,66,69.6,67.3,69.6,69.1z"/>
	<path class="st0" d="M80.7,73.2v-8.1h1.5v8.1H80.7z"/>
	<path class="st0" d="M91.3,73.3l-2.5-3.8h-0.9v3.6h-1.5V65h2.5c2.2,0,3.2,1.1,3.2,2.1c0,1.1-1,1.9-1.7,2.1l2.7,3.9L91.3,73.3z
		 M88.7,68.6c1.3,0,1.8-0.7,1.8-1.3c0-0.7-0.5-1.3-1.8-1.3h-0.8v2.6C87.9,68.6,88.7,68.6,88.7,68.6z"/>
	<path class="st0" d="M101.8,73.2h-5.4v-8.1h5.3v1H98v2.4h2.7v1H98v2.6h3.9v1.1H101.8z"/>
	<path class="st0" d="M110.7,65.1h2.8c2.9,0,4.9,1.5,4.9,4c0,2.3-2.3,4.1-4.9,4.1h-2.8V65.1z M113.6,72.2c1.5,0,3.2-1.2,3.2-3
		c0-2.1-1.6-3-3.2-3h-1.3v6H113.6z"/>
	<path class="st0" d="M127.5,73.2h-5.4v-8.1h5.3v1h-3.7v2.4h2.7v1h-2.7v2.6h3.9v1.1H127.5z"/>
	<path class="st0" d="M136,73.3l-2.5-3.8h-0.9v3.6H131V65h2.5c2.2,0,3.2,1.1,3.2,2.1c0,1.1-1,1.9-1.7,2.1l2.7,3.9L136,73.3z
		 M133.4,68.6c1.3,0,1.8-0.7,1.8-1.3c0-0.7-0.5-1.3-1.8-1.3h-0.8v2.6L133.4,68.6z"/>
	<path class="st0" d="M149.9,73.2h-1.5l-0.1-5.5l-2.6,5.5h-1l-2.5-5.4l-0.2,5.3h-1.3l0.4-8.1h1.5l2.8,6.3l2.9-6.3h1.4L149.9,73.2z"
		/>
	<path class="st0" d="M154.4,73.2H153l3.7-8.1h0.9l3.3,8.1h-1.6l-0.8-2h-3.2L154.4,73.2z M156.9,67.4l-1.3,2.9h2.4L156.9,67.4z"/>
	<path class="st0" d="M162.1,65.2h7.3v1h-2.9v7H165v-7h-2.9V65.2z"/>
	<path class="st0" d="M180.5,69.2c0,2.5-2.1,4.2-4.6,4.2c-2.6,0-4.5-1.6-4.5-4.2c0-2.4,1.9-4.2,4.6-4.2
		C178.8,65,180.5,66.8,180.5,69.2z M173.1,69.2c0,1.8,1.1,3.2,2.9,3.2c1.8,0,2.9-1.4,2.9-3.2c0-1.8-1.1-3.2-2.9-3.2
		C174.2,66,173.1,67.4,173.1,69.2z"/>
	<path class="st0" d="M185.8,72.2h3.3v1h-4.9v-8.1h1.6L185.8,72.2z"/>
	<path class="st0" d="M1.6,72.2h3.3v1H0v-8.1h1.6L1.6,72.2z"/>
	<path class="st0" d="M200.5,69.2c0,2.5-2.1,4.2-4.6,4.2c-2.6,0-4.5-1.6-4.5-4.2c0-2.4,1.9-4.2,4.5-4.2
		C198.8,65,200.5,66.8,200.5,69.2z M193.1,69.2c0,1.8,1.1,3.2,2.9,3.2c1.8,0,2.9-1.4,2.9-3.2c0-1.8-1.1-3.2-2.9-3.2
		C194.2,66.1,193.1,67.4,193.1,69.2z"/>
	<path class="st0" d="M208.6,73.4c-2.8,0-4.7-1.8-4.7-4.2c0-2.3,2-4.2,4.7-4.2c1.7,0,2.6,0.4,3,0.6l-0.5,1c-0.3-0.1-1.1-0.5-2.5-0.5
		c-1.7,0-3.1,1.4-3.1,3.1c0,1.9,1.5,3.1,3.2,3.1c0.9,0,1.3-0.1,1.6-0.2v-2.4h1.5v3C211.5,73,210.4,73.4,208.6,73.4z"/>
	<path class="st0" d="M215.5,73.3v-8.1h1.5v8.1H215.5z"/>
	<path class="st0" d="M229.8,73.8l-0.5,1.1l-5.3-1.7c-2.1-0.7-3.2-1.9-3.2-4c0-2.4,1.9-4.2,4.6-4.2c2.8,0,4.5,1.7,4.5,4.2
		c0,1.9-1.3,3.5-3,3.9L229.8,73.8z M222.4,69.3c0,1.8,1.1,3.2,2.9,3.2c1.8,0,2.9-1.4,2.9-3.2c0-1.8-1.1-3.2-2.9-3.2
		C223.6,66.1,222.4,67.4,222.4,69.3z"/>
	<path class="st0" d="M240.6,70.6c0,1.3-1,2.8-3.6,2.8c-2.4,0-3.6-1.1-3.6-2.8v-5.4h1.6v5.3c0,1.3,0.7,1.9,2.2,1.9
		c1.4,0,2.1-0.9,2.1-1.9v-5.3h1.4L240.6,70.6z"/>
	<path class="st0" d="M250,73.3h-5.4v-8.1h5.3v1h-3.7v2.4h2.7v1h-2.7v2.6h3.9v1.1H250z"/>
</g>
</svg>
